name C:\Users\u0101727\Documents\MyRepositories\paper-ad\trackingsimulations_3d\Results\TrackSim\IK_c2.mot
datacolumns 32
datarows 13
range 3.85000000 4.04200000
endheader
time	pelvis_tilt	pelvis_list	pelvis_rotation	pelvis_tx	pelvis_ty	pelvis_tz	hip_flexion_l	hip_adduction_l	hip_rotation_l	hip_flexion_r	hip_adduction_r	hip_rotation_r	knee_angle_l	knee_angle_r	ankle_angle_l	ankle_angle_r	subtalar_angle_l	subtalar_angle_r	lumbar_extension	lumbar_bending	lumbar_rotation	arm_flex_l	arm_add_l	arm_rot_l	arm_flex_r	arm_add_r	arm_rot_r	elbow_flex_l	elbow_flex_r	pro_sup_l	pro_sup_r	
          3.85000000	          0.30047093	         -3.01691805	          7.10634876	          0.02712550	          0.92247175	         -0.22392948	        -11.48575444	         -4.77109427	          1.35936701	         26.51488422	          4.43389442	         -7.54872748	        -36.10554967	        -22.74738122	         -4.20850337	         -6.00134043	         13.32392146	        -10.99983139	         -3.96393014	          5.52165534	         -8.62450386	         -1.76247829	        -14.53278349	         19.20570912	         -9.28577543	        -15.61433955	         14.50091734	         22.97043933	         11.49141931	         86.51662706	         86.51662706	
          3.86600000	          0.45776663	         -4.05116294	          6.93937815	          0.05083940	          0.92324419	         -0.22267905	         -9.50987217	         -6.00540134	          1.22107855	         25.59881493	          5.86878162	         -7.47906777	        -40.39380719	        -24.02629524	        -10.31746768	         -4.02647316	         11.95064219	        -11.16260219	         -3.76629105	          6.85023479	         -8.19101690	         -2.26152245	        -14.03048595	         19.48410854	         -9.06095523	        -15.91040233	         14.48107979	         21.88303851	         11.80840319	         86.51662706	         86.51662706	
          3.88200000	          0.64951423	         -4.90010849	          6.85905879	          0.07368120	          0.92456657	         -0.22167544	         -7.18598784	         -6.85516567	          1.78989089	         24.31507377	          7.05727572	         -7.51031741	        -44.73172903	        -24.71426219	        -15.47550062	         -2.01961881	         10.75754913	        -10.96598125	         -3.75128743	          7.96084845	         -7.77135207	         -2.62401340	        -13.59383311	         19.90614855	         -8.73054569	        -16.20554545	         14.34702620	         20.83862098	         12.32750302	         86.51662706	         86.51662706	
          3.89800000	          0.86126330	         -5.59524895	          6.87745025	          0.09558249	          0.92641215	         -0.22089141	         -4.54489481	         -7.36750450	          2.78117785	         22.75534150	          8.04493730	         -7.60156205	        -49.17918095	        -24.88090130	        -18.10267077	         -0.19478094	          9.72711975	        -10.59210550	         -3.89925918	          8.88426409	         -7.35908033	         -2.83810120	        -13.23901195	         20.47415096	         -8.31190112	        -16.50352522	         14.11769026	         19.88659252	         13.07711336	         86.51662706	         86.51662706	
          3.91400000	          1.08746215	         -6.11723394	          7.01525969	          0.11664194	          0.92881936	         -0.22032537	         -1.69173634	         -7.54297405	          4.00777160	         20.97767557	          8.81778819	         -7.73457491	        -53.41428946	        -24.61152186	        -19.14083834	          1.37119832	          8.06902267	        -10.11781557	         -4.17983773	          9.59428845	         -6.97834694	         -2.92698967	        -12.98437342	         21.15340763	         -7.84541254	        -16.80009219	         13.81808737	         19.06526473	         14.08620957	         86.51662706	         86.51662706	
          3.93000000	          1.30473034	         -6.40928605	          7.26678622	          0.13701448	          0.93177807	         -0.21994859	          1.33989978	         -7.33678196	          5.39505016	         19.05043352	          9.32202611	         -7.89301921	        -57.34906849	        -24.01544412	        -18.54629436	          2.69991452	          6.41853647	         -9.55180409	         -4.53849082	         10.01778993	         -6.64676313	         -2.93378632	        -12.84537372	         21.87172030	         -7.37081097	        -17.08310920	         13.47515337	         18.39619033	         15.36188851	         86.51662706	         86.51662706	
          3.94600000	          1.48272798	         -6.45210959	          7.58073016	          0.15690370	          0.93517789	         -0.21967497	          4.48376082	         -6.75647152	          6.78657726	         17.04131206	          9.54996402	         -8.05719969	        -60.80325085	        -23.18967752	        -16.79306561	          3.82076089	          5.05063268	         -8.89689702	         -4.90745383	         10.12331266	         -6.34544802	         -2.91830922	        -12.82223925	         22.53588891	         -6.91921773	        -17.34860347	         13.10983770	         17.89922438	         16.87635450	         86.51662706	         86.51662706	
          3.96200000	          1.59427978	         -6.25608097	          7.88078171	          0.17649680	          0.93884466	         -0.21939758	          7.66111133	         -5.85227143	          8.00350437	         15.01255539	          9.52589229	         -8.19721982	        -63.58373473	        -22.22080182	        -14.44285973	          4.75947463	          3.91173620	         -8.17044637	         -5.22987455	          9.91558335	         -6.02746351	         -2.93914980	        -12.90210932	         23.04537075	         -6.50641184	        -17.59914830	         12.73795740	         17.59369428	         18.57734534	         86.51662706	         86.51662706	
          3.97800000	          1.61868928	         -5.85046835	          8.05787222	          0.19592543	          0.94256587	         -0.21896984	         10.79321026	         -4.70643478	          8.87994917	         13.03240541	          9.30078154	         -8.22994705	        -65.56568883	        -21.20416060	        -11.78655125	          5.52675410	          2.98213044	         -7.44245870	         -5.47594085	          9.42087599	         -5.60217616	         -3.04081848	        -13.06335601	         23.30848295	         -6.13427425	        -17.84293511	         12.37307116	         17.49529593	         20.40150078	         86.51662706	         86.51662706	
          3.99400000	          1.55146317	         -5.28309334	          8.03755163	          0.21525024	          0.94612789	         -0.21829977	         13.81053895	         -3.43028968	          9.32459884	         11.15741468	          8.92657266	         -8.10362849	        -66.64994632	        -20.22750257	         -9.10663763	          6.15066540	          2.25282546	         -6.75823555	         -5.64246046	          8.69334126	         -5.00947943	         -3.24400609	        -13.27874592	         23.26741432	         -5.78685774	        -18.09356649	         12.02371241	         17.60286493	         22.29096025	         86.51662706	         86.51662706	
          4.01000000	          1.41263623	         -4.62292926	          7.80477252	          0.23449472	          0.94935466	         -0.21738829	         16.64756470	         -2.15344664	          9.33056000	          9.40561960	          8.45861374	         -7.82381982	        -66.77701726	        -19.34004701	         -6.58022628	          6.67094351	          1.51768811	         -6.10895298	         -5.74912298	          7.82213506	         -4.24809933	         -3.54451953	        -13.51564941	         22.91402190	         -5.43325990	        -18.36940470	         11.69324554	         17.88957052	         24.19637160	         86.51662706	         86.51662706	
          4.02600000	          1.24166914	         -3.97104496	          7.37674191	          0.25367655	          0.95211512	         -0.21626226	         19.25019539	         -1.02735655	          8.96571557	          7.75137766	          7.99479194	         -7.41153505	        -65.95637665	        -18.53135271	         -4.28655844	          7.09001992	          0.73502849	         -5.51331972	         -5.83016088	          6.93627299	         -3.34039810	         -3.91936921	        -13.73764076	         22.28753054	         -5.04137652	        -18.69109758	         11.38379800	         18.30619829	         26.07160498	         86.51662706	         86.51662706	
          4.04200000	          1.08427258	         -3.40019317	          6.80849492	          0.27279155	          0.95430816	         -0.21499590	         21.56730465	         -0.14209608	          8.35155545	          6.15734050	          7.59624543	         -6.93268302	        -64.21245314	        -17.80017615	         -2.29258812	          7.44703583	         -0.23533843	         -4.93859542	         -5.92911475	          6.13355562	         -2.34645187	         -4.33066994	        -13.91682660	         21.46406714	         -4.58084974	        -19.07051243	         11.10144163	         18.78242874	         27.88390148	         86.51662706	         86.51662706	
